<svg width="0" height="0" class="hidden">
    <symbol xmlns="http://www.w3.org/2000/svg" viewBox="0 0 28 30" id="join-meeting">
        <path d="M19.8465 19.5844C20.6973 19.1273 21.6711 18.8672 22.7082 18.8672H22.7117C22.8172 18.8672 22.8664 18.7406 22.7891 18.6703C21.7105 17.7024 20.4785 16.9206 19.1434 16.357C19.1293 16.35 19.1153 16.3465 19.1012 16.3395C21.2844 14.7539 22.7047 12.177 22.7047 9.26953C22.7047 4.45312 18.8094 0.550781 14.0035 0.550781C9.19768 0.550781 5.30589 4.45312 5.30589 9.26953C5.30589 12.177 6.7262 14.7539 8.91292 16.3395C8.89886 16.3465 8.88479 16.35 8.87073 16.357C7.29925 17.0215 5.88948 17.9742 4.67659 19.1906C3.4707 20.3943 2.51066 21.8213 1.85003 23.3918C1.20003 24.9298 0.849239 26.5775 0.816433 28.2469C0.815495 28.2844 0.822076 28.3217 0.83579 28.3567C0.849503 28.3916 0.870071 28.4234 0.896281 28.4503C0.922492 28.4772 0.953815 28.4985 0.988404 28.5131C1.02299 28.5277 1.06015 28.5352 1.09768 28.5352H3.20354C3.35471 28.5352 3.48128 28.4121 3.48479 28.2609C3.55511 25.5469 4.64143 23.0051 6.56448 21.0785C8.55081 19.0852 11.1946 17.9883 14.0071 17.9883C16.0004 17.9883 17.9129 18.5402 19.5617 19.5738C19.6041 19.6004 19.6527 19.6154 19.7027 19.6173C19.7527 19.6191 19.8023 19.6078 19.8465 19.5844ZM14.0071 15.3164C12.3969 15.3164 10.8817 14.6871 9.73909 13.5445C9.17692 12.9838 8.73126 12.3174 8.42776 11.5837C8.12427 10.85 7.96894 10.0635 7.97073 9.26953C7.97073 7.65586 8.60003 6.13711 9.73909 4.99453C10.8782 3.85195 12.3934 3.22266 14.0071 3.22266C15.6207 3.22266 17.1325 3.85195 18.275 4.99453C18.8372 5.55524 19.2829 6.22164 19.5864 6.95534C19.8899 7.68904 20.0452 8.47554 20.0434 9.26953C20.0434 10.8832 19.4141 12.402 18.275 13.5445C17.1325 14.6871 15.6172 15.3164 14.0071 15.3164ZM26.9375 23.6836H23.9844V20.7305C23.9844 20.5758 23.8578 20.4492 23.7032 20.4492H21.7344C21.5797 20.4492 21.4532 20.5758 21.4532 20.7305V23.6836H18.5C18.3453 23.6836 18.2188 23.8102 18.2188 23.9648V25.9336C18.2188 26.0883 18.3453 26.2148 18.5 26.2148H21.4532V29.168C21.4532 29.3227 21.5797 29.4492 21.7344 29.4492H23.7032C23.8578 29.4492 23.9844 29.3227 23.9844 29.168V26.2148H26.9375C27.0922 26.2148 27.2188 26.0883 27.2188 25.9336V23.9648C27.2188 23.8102 27.0922 23.6836 26.9375 23.6836Z" ></path>
    </symbol>
    <symbol xmlns="http://www.w3.org/2000/svg" viewBox="0 0 20 20" id="add-personal">
        <path d="M18.5714 11.4286H11.4286V18.5714C11.4286 18.9503 11.2781 19.3137 11.0102 19.5816C10.7422 19.8495 10.3789 20 10 20C9.62112 20 9.25776 19.8495 8.98985 19.5816C8.72194 19.3137 8.57143 18.9503 8.57143 18.5714V11.4286H1.42857C1.04969 11.4286 0.686328 11.2781 0.418419 11.0102C0.15051 10.7422 0 10.3789 0 10C0 9.62112 0.15051 9.25776 0.418419 8.98985C0.686328 8.72194 1.04969 8.57143 1.42857 8.57143H8.57143V1.42857C8.57143 1.04969 8.72194 0.686328 8.98985 0.418419C9.25776 0.150509 9.62112 0 10 0C10.3789 0 10.7422 0.150509 11.0102 0.418419C11.2781 0.686328 11.4286 1.04969 11.4286 1.42857V8.57143H18.5714C18.9503 8.57143 19.3137 8.72194 19.5816 8.98985C19.8495 9.25776 20 9.62112 20 10C20 10.3789 19.8495 10.7422 19.5816 11.0102C19.3137 11.2781 18.9503 11.4286 18.5714 11.4286Z" ></path>
    </symbol>
    <symbol xmlns="http://www.w3.org/2000/svg" viewBox="0 0 30 30" id="add-meeting">
        <path d="M27.8571 17.1429H17.1429V27.8571C17.1429 28.4255 16.9171 28.9705 16.5152 29.3724C16.1134 29.7742 15.5683 30 15 30C14.4317 30 13.8866 29.7742 13.4848 29.3724C13.0829 28.9705 12.8571 28.4255 12.8571 27.8571V17.1429H2.14286C1.57454 17.1429 1.02949 16.9171 0.627629 16.5152C0.225765 16.1134 0 15.5683 0 15C0 14.4317 0.225765 13.8866 0.627629 13.4848C1.02949 13.0829 1.57454 12.8571 2.14286 12.8571H12.8571V2.14286C12.8571 1.57454 13.0829 1.02949 13.4848 0.627628C13.8866 0.225764 14.4317 0 15 0C15.5683 0 16.1134 0.225764 16.5152 0.627628C16.9171 1.02949 17.1429 1.57454 17.1429 2.14286V12.8571H27.8571C28.4255 12.8571 28.9705 13.0829 29.3724 13.4848C29.7742 13.8866 30 14.4317 30 15C30 15.5683 29.7742 16.1134 29.3724 16.5152C28.9705 16.9171 28.4255 17.1429 27.8571 17.1429Z"></path>
    </symbol>
    <symbol  xmlns="http://www.w3.org/2000/svg" viewBox="0 0 4 18" id="three-dots">
        <path d="M2 0C0.9 0 0 0.9 0 2C0 3.1 0.9 4 2 4C3.1 4 4 3.1 4 2C4 0.9 3.1 0 2 0ZM2 14C0.9 14 0 14.9 0 16C0 17.1 0.9 18 2 18C3.1 18 4 17.1 4 16C4 14.9 3.1 14 2 14ZM2 7C0.9 7 0 7.9 0 9C0 10.1 0.9 11 2 11C3.1 11 4 10.1 4 9C4 7.9 3.1 7 2 7Z" fill="#C9DDFF"></path>
    </symbol>
</svg>